<?xml version="1.0" standalone="no"?>
<!DOCTYPE svg PUBLIC "-//W3C//DTD SVG 20010904//EN"
 "http://www.w3.org/TR/2001/REC-SVG-20010904/DTD/svg10.dtd">
<svg version="1.0" xmlns="http://www.w3.org/2000/svg"
 width="511.000000pt" height="511.000000pt" viewBox="0 0 511.000000 511.000000"
 preserveAspectRatio="xMidYMid meet">
<metadata>
Created by potrace 1.14, written by Peter Selinger 2001-2017
</metadata>
<g transform="translate(0.000000,511.000000) scale(0.100000,-0.100000)"
fill="#000000" stroke="none">
<path d="M2541 4939 c-13 -17 -21 -32 -19 -33 1 -2 46 -17 98 -35 581 -200
1051 -627 1340 -1215 156 -319 237 -582 292 -949 18 -119 22 -187 22 -427 0
-345 -20 -531 -84 -790 -125 -503 -364 -802 -711 -891 -107 -28 -281 -30 -384
-5 -200 49 -386 181 -534 380 -37 50 -71 97 -75 103 -4 7 8 48 27 90 96 218
189 560 232 848 83 560 -20 1155 -234 1348 -57 51 -115 70 -204 66 -92 -5
-150 -37 -218 -122 -231 -287 -265 -1152 -73 -1821 43 -150 95 -297 141 -398
l36 -78 -34 -57 c-55 -93 -171 -208 -248 -246 -58 -28 -77 -32 -163 -35 -160
-6 -282 43 -398 159 -213 214 -329 638 -346 1264 -24 865 187 1583 643 2197
79 105 83 112 67 129 -10 11 -23 19 -29 19 -15 0 -174 -179 -267 -300 -406
-528 -634 -1094 -724 -1800 -24 -190 -29 -598 -10 -770 22 -188 56 -357 101
-498 81 -254 158 -394 290 -527 96 -96 164 -142 273 -183 62 -24 80 -26 227
-26 157 -1 162 0 246 32 161 61 315 185 439 351 l54 73 16 -23 c221 -340 526
-537 870 -564 324 -26 652 97 885 330 186 187 340 478 420 795 63 246 80 394
80 695 0 292 -16 451 -71 725 -95 470 -307 954 -577 1313 -332 441 -797 762
-1288 887 -42 11 -79 20 -81 20 -2 0 -14 -14 -27 -31z m-215 -1820 c62 -60
109 -200 140 -417 24 -159 24 -569 1 -732 -33 -230 -100 -552 -125 -597 -21
-37 -150 368 -201 627 -44 225 -54 337 -55 580 0 207 3 247 23 340 26 121 49
179 86 216 22 22 33 25 62 21 21 -4 50 -19 69 -38z"/>
</g>
</svg>
